<svg xmlns="http://www.w3.org/2000/svg" viewBox="0 0 165 32.86">
  <g data-name="圖層 2">
    <g data-name="圖層 1" fill-rule="evenodd">
      <path d="M51.12 28.84c.14.39.29.8.44 1.24v-1.56h-3.33v.33h-1.57v-8.13H48c.14-.42.25-.76.33-1l2 .06c-.12.24-.28.57-.49 1h2.72v4.62h-4.33v.44h5.21v1.14h-5.21v.44h4.9C53.07 28.86 53 30 53 30.83c-.14 1.32-.66 2-1.55 2h-1.52c-.11-.58-.22-1.06-.33-1.45h1.3c.47 0 .58-.28.62-.85l-.64.17c-.15-.61-.33-1.18-.51-1.72l.74-.16zm-5.34 3.4l1.26.18c.14-.94.28-2 .43-3.3l-1-.12c0-.39-.09-.86-.13-1.42l-.91.33V23h1v-1.49h-3.34V23h.84v5.41l-1.26.44.53 1.6c.95-.39 2-.8 3.13-1.21-.17 1.06-.35 2-.56 3zm-4.53-5.36l1.45.61q-.46 3-.78 5.3l-1.55-.54q.49-2.34.88-5.36zm.09-3.5c.8.76 1.36 1.31 1.68 1.67l-1.3 1.2q-.56-.69-1.52-1.72l1.14-1.15zm.17-3.54c.67.64 1.17 1.16 1.53 1.56l-1.29 1.11c-.24-.3-.71-.85-1.39-1.65l1.15-1zm7.35 9.27h-1v2.9L49 32c0-.83-.08-1.8-.15-2.9zm2.14-4.9v-.74h-2.77v.74zm0-2.37h-2.77v.74H51v-.74zm-1.8 7.28q.13.85.28 2l.93-.13A20.27 20.27 0 0050 29l-.83.11zm15.15-2.85h1.2l.21-2.12-.62.65c-.29-.4-.65-.87-1.1-1.39a13.54 13.54 0 002.68-3.67l1.85.23c-.12.26-.25.52-.39.77h6.06v1.42h-6.9c-.21.3-.42.6-.65.89h6.85l-.05 3.22h1.06v1.37h-1.1v1.81h1v1.36h-1a2.08 2.08 0 01-.43 1.4 1.81 1.81 0 01-1.1.46c-.48.05-1.44.09-2.87.11-.12-.47-.25-.93-.39-1.4h2a2.65 2.65 0 00.7-.08c.2-.05.31-.24.32-.54h-6.55l.31-3.17h-1.08v-1.32zm6.46-.85l-.86.85h1.75V24.4h-2.38l1.5 1zm-2.69-.27l.81-.76h-1.44l-.19 1.87h2.26l-1.44-1.11zm0 3.25l.84-.77h-1.79L67 29.45h2.47c-.47-.37-.94-.72-1.38-1zm2.71.25l-.81.79h1.66v-1.81h-2.41l1.52 1zm-7.92-8.89L61.73 21q1.13.92 2 1.82L65 21.47c-.73-.63-1.45-1.19-2.13-1.7zm-.41 3.53l-1.08 1.26Q63 26 63.36 26.4l1.2-1.4c-.72-.63-1.42-1.19-2.1-1.67zm.46 4c-.39 1.87-.82 3.53-1.27 5 .59.16 1.17.34 1.75.54q.63-2.67 1.23-4.91a15.92 15.92 0 01-1.71-.62zm24.66 1l4.31-.39v-8.13h1.87v7.91l1.81-.17.15 1.68-2 .18v3.43h-1.87v-3.25l-4.08.37-.23-1.67zm-5.1.4q.38 1.25.61 2.12a17 17 0 001.4-2.44v4.48h1.72v-5.76c.33.35.71.78 1.14 1.29l1.11-1c-.44-.46-1-1-1.61-1.54l-.64.6v-1.15h1.73v-1.71h-1.77v-1.66c.7-.08 1.34-.16 1.94-.25l-.51-1.55c-1.55.22-3.23.4-5.06.54a15.33 15.33 0 01.3 1.58l1.61-.15v1.48H82.6v1.71h1.84a11.9 11.9 0 01-2 3.36zm7.06-7.93l-1.11 1.12a19.55 19.55 0 012.12 2l1.24-1.22q-1.24-1.11-2.24-1.85zm-.45 3.37L88 25.24a19.63 19.63 0 012.15 1.92L91.36 26a26.18 26.18 0 00-2.27-1.87zm27.41-.85h-3.24v1.47h2.91v1.61a10.19 10.19 0 01-2.36 3.43 14.38 14.38 0 003 1.25c-.43.76-.79 1.35-1.07 1.8a14.6 14.6 0 01-3.49-1.84 16.94 16.94 0 01-3.7 1.89c-.3-.49-.64-1.07-1-1.72a17.58 17.58 0 003.23-1.43 14.81 14.81 0 01-2-2.41l1.5-.89a9.55 9.55 0 002 2.26 7.15 7.15 0 001.82-2.3h-5.74v-1.69h2.95v-1.47h-2.92v-1.6h2.92v-1.89h1.91v1.89h3.24v1.59zm-12.74-1.15v1.72h1.48v2.34l-1.62.3.18 1.9 1.43-.37v2.38a.76.76 0 01-.13.5.6.6 0 01-.48.15h-.89c.21.76.36 1.36.45 1.8a3.77 3.77 0 002.33-.44 1.77 1.77 0 00.43-1.3v-3.55l1.14-.28c0-.4 0-1 .05-1.74l-1.19.26v-2h1.13v-1.72h-1.13v-2.33h-1.71v2.33zm28.43-2.41c.23.42.45.86.67 1.32h4.31v1.14h-4.43v.7h4v1.02h-4v.7h4v1.07h-4v.7h4.61v1.17h-9.41V28h-1.78v-3.83c-.24.23-.48.45-.74.67a15.84 15.84 0 00-.74-1.94 9.81 9.81 0 002.63-3.15l1.84.39c-.15.29-.3.57-.47.85H131c-.16-.36-.33-.7-.5-1l1.71-.3zm-4.24 2.49v.68h3v-.7h-3zm0 2.44h3v-.7h-3v.7zm0 1.77h3v-.7h-3v.7zm2.47 1.46v.61H125v1.27h3.78a15.88 15.88 0 01-4.07 1.51 11.12 11.12 0 01.92 1.54 13.93 13.93 0 004.8-2.55v2.6h1.76v-2.77a10.59 10.59 0 004.81 2.54c.24-.45.54-1 .93-1.58a12.75 12.75 0 01-4.07-1.34h3.89v-1.28h-5.55v-.61zm16 5V20.29h12v12.52h-1.7v-.42h-8.58v.43zm10.28-11.2h-8.58v9.44h8.58v-9.5zm-8.19 5.54l.11.85 6.75-.17.41.39.89-.61-1.11-1h.4v-3.17h-2.9v-.41h3.05v-.92h-3.05v-.37h-1.34v.37h-3.1v.92h3.1v.41h-2.86v3.41h1.38v-.33h1.48v.55zm0 1.18v.92h1.3l-.46.41c.5.36 1 .72 1.4 1.07l.91-.82-1-.66h3.11v.14c0 .29-.18.44-.52.44H152c.13.47.22.82.27 1h1.68c.82-.07 1.22-.46 1.22-1.18v-.4h1.15v-.92h-1.15V28h-1.39v.35zm6.14-1.25a2.56 2.56 0 01-.24-.24l.45-.26h-1.8v.53h1.54zm0-1.22v-.46h-1.59v.46zm-4.34 0h1.48v-.46h-1.48v.46zm4.34-1.59h-1.59v.44h1.52v-.44zm-4.34.44h1.48v-.44h-1.48zM1.52 4.62h8.89v8.36H20v-2.12h9.05v2.12h.26v8.84h-.26v9.31H20v-9.31h-9.59v10.04H1.52V4.62z" fill="#fff"/>
      <path d="M33.25.83h-.16v3.52h.16V.83zM33.09 5v-.3a.36.36 0 00.16.09v.28L33.09 5zm0-4.49v-.3l.16-.07v.3l-.16.07zM34.27 0a2.58 2.58 0 012.5 2.59 2.58 2.58 0 01-2.5 2.61v-.27a2.27 2.27 0 001.44-.58h-.46v-.07-.9a.48.48 0 00-.25-.46.88.88 0 00-.44-.07h-.19v-.42h.19c.25 0 .44 0 .58-.14s.16-.21.16-.49-.09-.41-.28-.46-.21-.1-.37-.1h-.28V.83h.28a1.85 1.85 0 01.65.1.9.9 0 01.51.88.59.59 0 01-.14.49.75.75 0 01-.37.34.63.63 0 01.3.21.86.86 0 01.14.46v.44a3 3 0 00.07.35.21.21 0 00.09.18 2.47 2.47 0 00.7-1.69A2.32 2.32 0 0034.27.28V0zm-.67.35a1.49 1.49 0 01.53-.07h.14V0h-.14a1.48 1.48 0 00-.53.07v.28zm0 4.79a1.54 1.54 0 00.53.07h.14v-.28a.47.47 0 01-.14 0 1.49 1.49 0 01-.53-.07v.23zm0-2.29h.67v-.42h-.67v.42zM33.25.44a1.91 1.91 0 01.35-.09V.07a.94.94 0 00-.34.07v.3zm0 3.91V.83h.34v.42h-.23v1.18h.23v.42h-.23v1.5zm0 .72a.9.9 0 00.34.07v-.23l-.34-.12v.28zm1-4.24h-.65v.42h.67V.83zm-1.18 0v3.52h-.17V.83zm0-.62v.3a2.31 2.31 0 00-1.3 2.08 2.32 2.32 0 001.3 2.11V5a2.63 2.63 0 01-1.57-2.41A2.59 2.59 0 0133.09.21zM30.36 32.79H18.24l-.1-9H15.2v-3h3.12a3.05 3.05 0 013 2.89v6.08h6V19.37a5.15 5.15 0 00-4.56-4.65H15.2v-3h3.05v-9h12.11v30.07zm-15.16-9v-3h-3a3.12 3.12 0 00-3.06 2.89v6.15H3.08V5.67h6.06v9h6.06v-3h-3v-9H0v30.2h12.17v-9.11z" fill="#e83535"/>
      <path d="M162.83 3.19h-.6v.37h.6v-.37zm-.9 3.7v-.25a2.2 2.2 0 00.3.11V7a1.79 1.79 0 01-.3-.07zm0-.62V3.19h.3v.37H162v1h.2V5h-.2v1.27zm0-3.42v-.26a2.41 2.41 0 01.3-.07v.25a2.5 2.5 0 00-.3.09zm.3 2.1h.6V4.6h-.6V5zm0 2a1.58 1.58 0 00.47.05h.12v-.23s-.09.05-.12.05a1.51 1.51 0 01-.47-.07V7zm0-4.2a1.64 1.64 0 01.47 0h.12v-.29h-.12a1.45 1.45 0 00-.47.06v.25zm.6-.3a2.28 2.28 0 010 4.55v-.23a2 2 0 001.25-.49h-.4c-.06 0-.06-.05-.06-.07v-.78a.41.41 0 00-.23-.4c0-.05-.18-.07-.37-.07h-.16V4.6h.14a.71.71 0 00.49-.13c.11-.05.14-.19.14-.42s-.07-.37-.24-.43-.18-.07-.32-.07h-.23v-.36h.23a1.65 1.65 0 01.56.09.8.8 0 01.46.76.58.58 0 01-.12.44.7.7 0 01-.34.3.55.55 0 01.27.18.72.72 0 01.12.4v.39c0 .12.05.23.05.3a.29.29 0 00.08.16 2.15 2.15 0 00.63-1.48 2 2 0 00-1.94-2v-.27zm-.9.13a2.26 2.26 0 00-1.52 2.14 2.29 2.29 0 001.52 2.17v-.25a2 2 0 01-1.27-1.92 2 2 0 011.27-1.87v-.26zm0 .6h-.3v3.09h.3V3.19zM53.24 8.68v2.24h-7.5a1 1 0 00-1 1v4h-4.4V7.37A4.24 4.24 0 0144.39 3h9.49v2.82h-8.74a.44.44 0 00-.42.46v1.94a.45.45 0 00.42.46h8.1zm105.12 7.25V7.3A4.53 4.53 0 00154 2.9h-11.65v13h4.37V6.21a.44.44 0 01.42-.43h6.43a.44.44 0 01.42.43v9.72zM114.1 16v-2.88h3.09a.47.47 0 00.5-.44V6.24a.47.47 0 00-.48-.42h-3.11V3h3.69a4.27 4.27 0 014.42 4.41v4.16a4.36 4.36 0 01-4.49 4.43zm26.16 0V7.32A4.52 4.52 0 00135.85 3h-11.6v13h4.39V6.24a.42.42 0 01.42-.42h6.4a.4.4 0 01.39.42V16zM114.1 3h-3.17a4.64 4.64 0 00-4.84 4.41v4.16a4.64 4.64 0 004.84 4.41h3.17v-2.86H111a.47.47 0 01-.48-.43V6.24a.45.45 0 01.48-.42h3.14V3zM63.83 16v-2.88h3.09a.47.47 0 00.49-.44V6.24a.46.46 0 00-.41-.45h-3.17V3h3.69a4.28 4.28 0 014.41 4.41v4.16A4.36 4.36 0 0167.46 16zm40.38 0H95a4.38 4.38 0 01-4.35-4.43V7.39A4.37 4.37 0 0195 3h9.21v2.82h-8.72a.45.45 0 00-.44.46v6.4a.44.44 0 00.44.44h8.73V16zm-21.93-2.4l2.08 2.4h5.18l-4.81-5.54a1.4 1.4 0 010-2l4.78-5.52H84.3l-2 2.38a1.4 1.4 0 01-2 0l-2.08-2.38h-5.15l4.78 5.51a1.4 1.4 0 010 2L73.08 16h5.15l2-2.38a1.41 1.41 0 012 0zM63.83 3h-3.17a4.66 4.66 0 00-4.84 4.43v4.14A4.67 4.67 0 0060.66 16h3.17v-2.88H60.7a.47.47 0 01-.47-.44V6.27a.46.46 0 01.47-.46h3.14z" fill="#fff"/>
    </g>
  </g>
</svg>
