<svg xmlns="http://www.w3.org/2000/svg" viewBox="0 0 165 32.86">
  <g data-name="圖層 2">
    <g data-name="圖層 1" fill-rule="evenodd">
      <path d="M33.25.83h-.16v3.52h.16V.83zM33.09 5v-.3a.36.36 0 00.16.09v.28L33.09 5zm0-4.49v-.3l.16-.07v.3l-.16.07zM34.27 0a2.58 2.58 0 012.5 2.59 2.58 2.58 0 01-2.5 2.61v-.27a2.27 2.27 0 001.44-.58h-.46v-.07-.9a.48.48 0 00-.25-.46.88.88 0 00-.44-.07h-.19v-.42h.19c.25 0 .44 0 .58-.14s.16-.21.16-.49-.09-.41-.28-.46-.21-.1-.37-.1h-.28V.83h.28a1.85 1.85 0 01.65.1.9.9 0 01.51.88.59.59 0 01-.14.49.75.75 0 01-.37.34.63.63 0 01.3.21.86.86 0 01.14.46v.44a3 3 0 00.07.35.21.21 0 00.09.18 2.47 2.47 0 00.7-1.69A2.32 2.32 0 0034.27.28V0zm-.67.35a1.49 1.49 0 01.53-.07h.14V0h-.14a1.48 1.48 0 00-.53.07v.28zm0 4.79a1.54 1.54 0 00.53.07h.14v-.28a.47.47 0 01-.14 0 1.49 1.49 0 01-.53-.07v.23zm0-2.29h.67v-.42h-.67v.42zM33.25.44a1.91 1.91 0 01.35-.09V.07a.94.94 0 00-.34.07v.3zm0 3.91V.83h.34v.42h-.23v1.18h.23v.42h-.23v1.5zm0 .72a.9.9 0 00.34.07v-.23l-.34-.12v.28zm1-4.24h-.65v.42h.67V.83zm-1.18 0v3.52h-.17V.83zm0-.62v.3a2.31 2.31 0 00-1.3 2.08 2.32 2.32 0 001.3 2.11V5a2.63 2.63 0 01-1.57-2.41A2.59 2.59 0 0133.09.21zM30.36 32.79H18.24l-.1-9H15.2v-3h3.12a3.05 3.05 0 013 2.89v6.08h6V19.37a5.15 5.15 0 00-4.56-4.65H15.2v-3h3.05v-9h12.11v30.07zm-15.16-9v-3h-3a3.12 3.12 0 00-3.06 2.89v6.15H3.08V5.67h6.06v9h6.06v-3h-3v-9H0v30.2h12.17v-9.11z" fill="#e83535"/>
      
    </g>
  </g>
</svg>
